<?xml version="1.0" encoding="UTF-8"?>
<svg version="1.1" xmlns="http://www.w3.org/2000/svg" width="1056" height="757">
<path d="M0 0 C348.48 0 696.96 0 1056 0 C1056 249.81 1056 499.62 1056 757 C707.52 757 359.04 757 0 757 C0 507.19 0 257.38 0 0 Z " fill="#B9DFFE" transform="translate(0,0)"/>
<path d="M0 0 C4.00160025 0.57267982 6.67506761 1.82199092 10.0625 4 C13.045707 5.91219432 15.49770531 7.35292477 19 8 C19 8.66 19 9.32 19 10 C19.78246094 10.20882812 20.56492187 10.41765625 21.37109375 10.6328125 C26.29706398 12.48866781 30.57185686 15.15034012 35.0625 17.875 C37.04217419 19.06122288 39.02266279 20.24608751 41.00390625 21.4296875 C42.00566895 22.0287793 43.00743164 22.62787109 44.03955078 23.24511719 C48.49478748 25.88607392 52.99506467 28.44506422 57.5 31 C113.10225493 62.67974427 113.10225493 62.67974427 122 82 C128.29564464 105.2568063 126.31853255 131.40787898 126.26074219 155.28857422 C126.2492841 160.0660866 126.25597883 164.84337565 126.26788712 169.62088013 C126.27518461 173.3703168 126.27278311 177.11970223 126.26763153 180.86914062 C126.26632016 182.62939482 126.26785181 184.38965404 126.27259064 186.14990234 C126.29734968 197.90770413 125.51983108 209.34160985 124 221 C123.86531311 222.11600586 123.73062622 223.23201172 123.59185791 224.38183594 C122.72142934 231.20726401 120.13452128 235.5940884 116 241 C115.37158203 241.98226562 115.37158203 241.98226562 114.73046875 242.984375 C107.6095189 253.74109683 94.87990452 260.64148404 84 267 C83.13938965 267.50547363 82.2787793 268.01094727 81.39208984 268.53173828 C74.27434606 272.71020018 67.13930576 276.85851812 60 281 C58.32159084 281.97521956 56.6432037 282.95047701 54.96484375 283.92578125 C50.3147195 286.62557336 45.65859567 289.31485691 41 292 C40.13745605 292.49773926 39.27491211 292.99547852 38.38623047 293.50830078 C-0.62710553 316 -0.62710553 316 -8 316 C-8 316.66 -8 317.32 -8 318 C-10.52475462 319.26237731 -12.31200466 319.09856404 -15.125 319.0625 C-16.03507813 319.05347656 -16.94515625 319.04445313 -17.8828125 319.03515625 C-18.58148437 319.02355469 -19.28015625 319.01195312 -20 319 C-15.74167532 312.79501261 -10.82150042 307.66997989 -5.4074707 302.48168945 C-2.00237521 299.21285837 -2.00237521 299.21285837 0 295 C1.79638672 293.81176758 1.79638672 293.81176758 4.1796875 292.64453125 C5.07469971 292.19553467 5.96971191 291.74653809 6.8918457 291.28393555 C7.87628662 290.79836182 8.86072754 290.31278809 9.875 289.8125 C20.06904478 284.64376755 29.91101114 279.02866936 39.70947266 273.14916992 C46.56280441 269.03746446 53.44750437 265.00238393 60.3894043 261.04272461 C86.9667617 247.3814129 86.9667617 247.3814129 105 225 C105.66 225 106.32 225 107 225 C107.144375 224.01 107.28875 223.02 107.4375 222 C107.51871094 221.443125 107.59992188 220.88625 107.68359375 220.3125 C107.78800781 219.549375 107.89242187 218.78625 108 218 C108.165 216.85144531 108.33 215.70289063 108.5 214.51953125 C109.12594282 209.4769749 109.22644596 204.45115633 109.31640625 199.375 C109.3475779 197.89374634 109.3475779 197.89374634 109.37937927 196.38256836 C109.44430753 193.25511039 109.5034937 190.12757473 109.5625 187 C109.60573928 184.86848183 109.64935522 182.73697127 109.69335938 180.60546875 C109.79993003 175.40372588 109.9017974 170.20190723 110 165 C104.82102985 164.94511138 99.64561781 164.94251889 94.46655273 164.98779297 C92.70614382 164.99588978 90.9456096 164.98984962 89.18530273 164.96923828 C79.44144639 164.3922422 79.44144639 164.3922422 70.83374023 167.76196289 C69.49335274 169.84190963 69.49335274 169.84190963 68.78027344 172.04711914 C67.35538127 175.61336208 64.36984215 176.46825357 61 178 C55.89101848 179.53269445 49.97320053 180.27504561 44.96875 178.12890625 C39.84275832 174.70033725 35.9565735 169.86972051 34 164 C33.37433883 158.70752189 33.58801272 154.30808443 36.58984375 149.703125 C40.00561202 145.57770958 43.87624171 141.70791943 49 140 C55.27664941 139.42939551 60.47104339 139.70389125 66 143 C68.31963817 145.12933526 70.40154891 147.27736352 72 150 C72 151.32 72 152.64 72 154 C84.54 154 97.08 154 110 154 C110 142.45 110 130.9 110 119 C102.67506376 118.94164327 95.35895692 118.89192393 88.03530884 118.9250412 C84.62479499 118.937996 81.21598765 118.93523679 77.80566406 118.89379883 C73.88804772 118.84693154 69.97250239 118.87284672 66.0546875 118.90234375 C64.83884979 118.87776596 63.62301208 118.85318817 62.37033081 118.8278656 C56.02692165 118.78593484 56.02692165 118.78593484 50.92926025 122.07693481 C49.27750357 124.5175698 49.27750357 124.5175698 48.04885864 127.06983948 C47.52967361 128.02526894 47.52967361 128.02526894 47 129 C46.34 129 45.68 129 45 129 C44.67 129.99 44.34 130.98 44 132 C39.35416233 134.32291884 33.05602495 133.42037565 28 133 C25.23323016 132.01478491 24.19442407 131.07892806 22 129 C21.278125 128.38125 20.55625 127.7625 19.8125 127.125 C15.14531958 121.6531333 14.44787635 116.86854827 14.65625 109.8359375 C15.42892265 103.46138814 19.74624735 100.08227021 24.4140625 96.19921875 C27.72990654 93.69191796 30.26829515 93.83557138 34.375 93.8125 C35.51710938 93.79832031 36.65921875 93.78414063 37.8359375 93.76953125 C40.83936816 93.98829966 42.47925934 94.42919363 45 96 C45 96.66 45 97.32 45 98 C45.598125 98.2475 46.19625 98.495 46.8125 98.75 C50.35758004 100.77576002 51.72664719 103.17994156 53 107 C71.48 107.33 89.96 107.66 109 108 C107.17286285 90.7302408 107.17286285 90.7302408 98 77 C96.515 76.01 96.515 76.01 95 75 C95 74.34 95 73.68 95 73 C76.19 73 57.38 73 38 73 C37.34 74.98 36.68 76.96 36 79 C34 81.375 34 81.375 32 83 C31.34 83 30.68 83 30 83 C30 83.66 30 84.32 30 85 C23.63024226 86.89200725 15.46601431 87.78600432 9.4453125 84.68359375 C7.35692256 82.92225356 5.68345089 81.14872627 4 79 C3.54882812 78.44828125 3.09765625 77.8965625 2.6328125 77.328125 C-0.6145439 72.62505711 -0.79042871 67.48704582 0 62 C1.0234375 59.69921875 1.0234375 59.69921875 2 58 C2.66 58 3.32 58 4 58 C4.04125 57.443125 4.0825 56.88625 4.125 56.3125 C5.46624678 52.76777636 8.00924722 51.21315705 11 49 C16.90511812 47.03162729 23.2113161 46.66937798 28.90625 49.38671875 C35.49363097 53.85257556 35.49363097 53.85257556 37.14550781 57.59570312 C38.8576769 60.38104992 38.8576769 60.38104992 42.46166992 60.56762695 C43.88484843 60.56683711 45.30818281 60.53868344 46.73046875 60.48828125 C47.85609978 60.47766914 47.85609978 60.47766914 49.00447083 60.46684265 C51.39983095 60.43886657 53.79284747 60.37613009 56.1875 60.3125 C57.81181518 60.28742092 59.43616703 60.26460706 61.06054688 60.24414062 C65.04126671 60.18903043 69.02023615 60.10274233 73 60 C51.44590513 47.47101874 29.84317276 35.01952364 8 23 C8 22.34 8 21.68 8 21 C7.04287109 20.69255859 7.04287109 20.69255859 6.06640625 20.37890625 C5.24011719 20.10949219 4.41382813 19.84007812 3.5625 19.5625 C2.73878906 19.29566406 1.91507813 19.02882812 1.06640625 18.75390625 C-1 18 -1 18 -2 17 C-1.93517591 14.50427272 -1.80873196 12.04977139 -1.625 9.5625 C-1.58117187 8.86833984 -1.53734375 8.17417969 -1.4921875 7.45898438 C-1.12978944 2.25957888 -1.12978944 2.25957888 0 0 Z " fill="#060708" transform="translate(550,221)"/>
<path d="M0 0 C-1.37735711 3.66853769 -3.05301111 6.97750439 -5 10.375 C-6.86724169 13.69503593 -8.01155156 16.05420347 -8.8125 19.8125 C-11.67801637 27.50414919 -23.57443893 31.70579864 -30.38912964 35.54782104 C-33.48839478 37.29649261 -36.57977829 39.05900617 -39.671875 40.8203125 C-40.29267441 41.17369186 -40.91347382 41.52707123 -41.55308533 41.89115906 C-74.19418093 58.0397869 -74.19418093 58.0397869 -96 85 C-96.92019405 88.98072894 -97.50742002 92.94692345 -98 97 C-98.16588623 97.9988623 -98.33177246 98.99772461 -98.50268555 100.02685547 C-99.19199651 104.84482974 -99.23084647 109.66758994 -99.31640625 114.52734375 C-99.33505737 115.40491333 -99.3537085 116.28248291 -99.3729248 117.18664551 C-99.44076294 120.43683668 -99.50120345 123.68717888 -99.5625 126.9375 C-99.706875 134.218125 -99.85125 141.49875 -100 149 C-83.17 149 -66.34 149 -49 149 C-48.67 147.68 -48.34 146.36 -48 145 C-44.92534623 140.34295113 -41.38082566 136.72592521 -36 135 C-30.23123959 134.47247324 -25.29064707 134.4437446 -20 137 C-17.4375 139.25 -17.4375 139.25 -15 142 C-14.236875 142.845625 -13.47375 143.69125 -12.6875 144.5625 C-9.97415933 150.08967544 -9.79453957 156.26171821 -11.6953125 162.15625 C-14.42813886 167.39225345 -18.558301 170.88531133 -23.875 173.3125 C-30.68489642 174.81067721 -35.93278966 174.59538391 -42 171 C-44.77435229 167.94446336 -47.15258069 164.69483863 -49 161 C-65.83 160.67 -82.66 160.34 -100 160 C-100 171.55 -100 183.1 -100 195 C-77.56 195 -55.12 195 -32 195 C-31.67 193.35 -31.34 191.7 -31 190 C-28.05748475 185.17427499 -24.24075802 182.80451009 -19 181 C-11.96538577 179.97884632 -6.88093332 182.10969188 -1 186 C2.18526407 188.97436759 4.79019708 192.07880471 5.2734375 196.50390625 C5.51691237 203.83624565 4.6912883 209.1852716 0 215 C-3.40939597 218 -3.40939597 218 -7 218 C-7 218.66 -7 219.32 -7 220 C-20.45509877 220.92298696 -20.45509877 220.92298696 -26.41015625 216.50390625 C-28.85489665 214.19131398 -30.41289835 211.97581559 -32 209 C-32 208.34 -32 207.68 -32 207 C-53.78 207 -75.56 207 -98 207 C-94.92774042 221.48960374 -94.92774042 221.48960374 -87 232 C-86.40993164 232.69480469 -85.81986328 233.38960937 -85.21191406 234.10546875 C-78.04236275 241.31220302 -70.4189616 241.02811384 -60.8359375 241.05859375 C-58.84895006 241.03992275 -56.86197063 241.02038084 -54.875 241 C-52.84894064 241.00810164 -50.82289227 241.01978782 -48.796875 241.03515625 C-43.86374089 241.06483451 -38.93298747 241.04577589 -34 241 C-33.86948242 240.21520264 -33.73896484 239.43040527 -33.60449219 238.62182617 C-32.53820996 233.99710694 -28.68103962 231.72046357 -25 229 C-20.98090484 226.74538564 -17.57445694 226.60565026 -13 227 C-7.44923964 228.78417297 -2.75695257 231.51196477 1 236 C2.25891718 238.64038381 2.70340568 241.10290908 3 244 C3.0928125 244.73605469 3.185625 245.47210938 3.28125 246.23046875 C3.70071987 252.32326864 1.98191848 256.40467893 -2 261 C-8.43967515 266.12545573 -14.01844755 266.45646133 -22 266 C-27.43111112 264.98956072 -30.97714352 260.39925799 -34 256 C-34 255.01 -34 254.02 -34 253 C-43.9 253.495 -43.9 253.495 -54 254 C-47.73749937 258.40694489 -41.23736901 262.1387709 -34.53222656 265.81152344 C-24.55053348 271.30411697 -14.78254914 277.16242703 -5 283 C-5.66666667 285.66666667 -6.33333333 288.33333333 -7 291 C-7.66 291 -8.32 291 -9 291 C-9.66 292.98 -10.32 294.96 -11 297 C-15.92106876 296.41711613 -19.58904869 294.23093706 -23.8125 291.8125 C-24.97471069 291.15689087 -24.97471069 291.15689087 -26.16040039 290.48803711 C-34.85435518 285.56137742 -43.47643952 280.5083387 -52.09375 275.44921875 C-55.76501927 273.29674692 -59.44829467 271.17064394 -63.15625 269.08203125 C-101.46740987 247.45538536 -101.46740987 247.45538536 -106 234 C-106.66 234 -107.32 234 -108 234 C-108.98284481 231.8210516 -109.93483453 229.63486349 -110.875 227.4375 C-111.14441406 226.84775391 -111.41382813 226.25800781 -111.69140625 225.65039062 C-117.65081905 211.47861627 -116.31129154 194.72100781 -116.30078125 179.69140625 C-116.30467796 177.3522077 -116.3090146 175.01300984 -116.31376648 172.67381287 C-116.32118781 167.79317928 -116.32096684 162.9126181 -116.31567383 158.03198242 C-116.30987864 151.81791335 -116.32683178 145.60414228 -116.3500185 139.39012241 C-116.36484012 134.5658753 -116.36561623 129.74169864 -116.36250877 124.91743279 C-116.36301755 122.62800442 -116.36817065 120.33857165 -116.37832069 118.04916573 C-116.46284964 96.32505088 -115.69378039 76.3483588 -99.95703125 59.859375 C-86.48358432 46.96568051 -69.25657014 38.04081623 -53.20019531 28.83837891 C-49.94725298 26.96969903 -46.70316498 25.08642074 -43.4609375 23.19921875 C-32.86875587 17.04188568 -22.23998701 10.95892864 -11.5 5.0625 C-10.56784668 4.54800293 -9.63569336 4.03350586 -8.67529297 3.50341797 C-7.82338379 3.0395166 -6.97147461 2.57561523 -6.09375 2.09765625 C-5.34802734 1.69039307 -4.60230469 1.28312988 -3.83398438 0.86352539 C-2 0 -2 0 0 0 Z " fill="#060809" transform="translate(493,226)"/>
<path d="M0 0 C0.93392578 -0.02900391 1.86785156 -0.05800781 2.83007812 -0.08789062 C11.78371341 -0.16980284 16.4241286 2.72745236 23.0625 8.75 C23.89265625 9.49121094 24.7228125 10.23242188 25.578125 10.99609375 C33.1078253 18.80223409 33.03671478 27.94666632 32.98046875 38.2734375 C32.8125 41.3125 32.8125 41.3125 31.8125 44.3125 C31.1525 44.3125 30.4925 44.3125 29.8125 44.3125 C29.5340625 45.55 29.5340625 45.55 29.25 46.8125 C25.94873328 54.8503668 20.06546208 59.65265109 12.26171875 63.24609375 C2.99899792 66.10987947 -8.44394037 65.586768 -17.1875 61.3125 C-24.27327029 56.93089102 -29.40530279 49.49678909 -32.625 41.9375 C-34.14419386 32.14713957 -33.95691509 23.25136263 -28.55859375 14.74609375 C-20.93431299 4.41095761 -12.48353652 0.12660788 0 0 Z " fill="#03AFEF" transform="translate(527.1875,331.6875)"/>
<path d="M0 0 C0 0.66 0 1.32 0 2 C0.680625 2.165 1.36125 2.33 2.0625 2.5 C7.2299981 5.13872243 12.03738357 10.47243777 14 16 C14.28340491 18.85882356 14.27906974 21.69186314 14.25 24.5625 C14.26160156 25.71395508 14.26160156 25.71395508 14.2734375 26.88867188 C14.25989467 30.77207821 14.19983549 32.70024677 12 36 C11.34 36 10.68 36 10 36 C9.73574219 36.59683594 9.47148438 37.19367188 9.19921875 37.80859375 C6.55521511 42.64014438 1.26306947 46.5948923 -3.8515625 48.52734375 C-9.89232547 49.8563116 -17.22465048 50.37630915 -22.875 47.5 C-27.9306157 43.98250179 -34.00138883 37.75451863 -35.6015625 31.73828125 C-36.61538571 24.77073153 -37.64587534 16.78600017 -33.9375 10.5 C-25.60382262 -0.46289391 -13.26263871 -5.73519512 0 0 Z " fill="#04B0EF" transform="translate(529,268)"/>
<path d="M0 0 C0 0.66 0 1.32 0 2 C0.556875 2.226875 1.11375 2.45375 1.6875 2.6875 C6.14456494 5.21718551 8.55768681 7.77837311 10.3125 12.625 C12.01434931 21.39861147 11.80778409 29.27652749 7 37 C4.3342017 40.1209346 2.88358957 41.70547014 -1 43 C-1 43.66 -1 44.32 -1 45 C-8.27372986 47.77885265 -17.44170852 48.64056291 -24.9375 46 C-30.15006605 42.59587523 -35.98958087 36.85384218 -37.609375 30.67578125 C-38.89940236 21.83909383 -38.74275376 13.67825882 -33.74609375 6.09765625 C-25.62524814 -4.3687197 -11.55055624 -6.60031785 0 0 Z " fill="#02AFEF" transform="translate(540,412)"/>
<path d="M0 0 C5.43908923 4.2428086 9.70651351 7.8827494 10.6328125 14.984375 C10.643125 16.2734375 10.6534375 17.5625 10.6640625 18.890625 C10.695 20.1796875 10.7259375 21.46875 10.7578125 22.796875 C10.024696 27.23415905 8.57715194 28.57177881 5.1640625 31.390625 C4.3390625 32.1125 3.5140625 32.834375 2.6640625 33.578125 C-2.27829005 37.1613306 -6.7648061 38.11737185 -12.8359375 37.390625 C-17.76745997 36.16445698 -21.64737637 34.50918313 -24.8359375 30.390625 C-24.8359375 29.730625 -24.8359375 29.070625 -24.8359375 28.390625 C-25.8259375 28.060625 -26.8159375 27.730625 -27.8359375 27.390625 C-29.89358288 21.21768885 -29.96689212 13.87872516 -27.2734375 7.953125 C-19.94935708 0.25345071 -10.76141479 -6.10702878 0 0 Z " fill="#05B0EF" transform="translate(530.8359375,216.609375)"/>
<path d="M0 0 C1.734375 0.9140625 1.734375 0.9140625 4.796875 3.3515625 C5.374375 3.77953125 5.951875 4.2075 6.546875 4.6484375 C9.6903017 7.47170037 10.68236485 9.66142749 11.37890625 13.859375 C11.6916352 21.17577782 11.32069984 26.42068083 6.40234375 32.03125 C4.796875 33.3515625 4.796875 33.3515625 1.796875 34.3515625 C1.466875 35.3415625 1.136875 36.3315625 0.796875 37.3515625 C-5.19273302 39.34809851 -11.92459555 39.42868551 -17.640625 36.7265625 C-26.8614498 28.1804322 -26.8614498 28.1804322 -27.46875 23.15234375 C-27.38450477 9.73629123 -27.38450477 9.73629123 -23.359375 5.3359375 C-16.40006723 -0.86692377 -9.33394488 -2.74722491 0 0 Z " fill="#04B0EF" transform="translate(530.203125,474.6484375)"/>
<path d="M0 0 C3.6788999 1.81601746 7.24552635 3.90805032 8.6875 7.90625 C9.78117727 15.23388769 9.50819353 20.35922244 5.2890625 26.6015625 C4.86367188 27.06304688 4.43828125 27.52453125 4 28 C3.34 28 2.68 28 2 28 C2 28.66 2 29.32 2 30 C-10.71504564 31.03249995 -10.71504564 31.03249995 -15.125 27.375 C-18.7877418 23.49412966 -20.75740178 19.90612887 -21.4375 14.5625 C-20.73462674 8.83910347 -18.58026031 5.50317444 -14.4375 1.5625 C-9.53148767 -0.6675056 -5.29547242 -1.00225043 0 0 Z " fill="#07B1EF" transform="translate(510,527)"/>
<path d="M0 0 C4.35928095 2.24654382 7.28978196 4.93467294 10 9 C10.1953125 11.69921875 10.1953125 11.69921875 10.125 14.6875 C10.10695313 15.68136719 10.08890625 16.67523438 10.0703125 17.69921875 C10.04710937 18.45847656 10.02390625 19.21773437 10 20 C9.34 20 8.68 20 8 20 C7.9071875 20.8353125 7.9071875 20.8353125 7.8125 21.6875 C6.6391063 25.027159 4.65553186 26.71500747 2 29 C-2.26129395 30.37376417 -6.59656769 30.89939386 -11 30 C-15.1439526 27.40655315 -18.43624756 24.69125731 -20 20 C-20.39892212 14.11589877 -20.0061729 9.18622195 -17 4 C-12.1826027 -0.8173973 -6.46794962 -1.23503989 0 0 Z " fill="#06B0EF" transform="translate(545,172)"/>
<path d="M0 0 C2.96423508 1.4622804 4.55169528 3.027164 6 6 C6.99427508 10.90874389 6.78594173 14.65267132 4.25 19 C0.1562727 22.63886871 -3.32625455 23.59574573 -8.73828125 23.42578125 C-12.04060722 22.80409985 -13.79831225 21.58868499 -15.95703125 19.04296875 C-18.12281697 14.80062443 -17.98281744 10.57518464 -17 6 C-13.69789335 -0.93575012 -6.91935307 -1.49663044 0 0 Z " fill="#0AB1EF" transform="translate(566,141)"/>
<path d="M0 0 C4.06662662 1.55271198 5.57519602 2.36279402 8 6 C8.61414419 10.25912987 8.43727155 13.97241187 6.75 17.9375 C4.37203931 20.74009652 2.23906728 21.7689528 -1.3671875 22.44140625 C-5.00627191 22.61712528 -7.8343711 22.73425442 -10.984375 20.75 C-14.01226922 17.63559452 -15.41148549 14.77931648 -15.75 10.4375 C-15.49169884 7.08532491 -14.73164405 5.01373831 -12.5625 2.4375 C-8.69512243 -0.85388517 -4.84743301 -0.88450477 0 0 Z " fill="#06B0EF" transform="translate(478,567)"/>
<path d="M0 0 C3.91851711 0.64121189 5.06308226 1.45749219 7.4375 4.5625 C8.98336876 7.65423752 8.73109521 10.15679552 8.4375 13.5625 C6.875 16 6.875 16 4.4375 17.5625 C1 18.125 1 18.125 -2.5625 17.5625 C-5.4375 15.125 -5.4375 15.125 -7.5625 12.5625 C-7.8925 12.2325 -8.2225 11.9025 -8.5625 11.5625 C-9.10691566 7.5701185 -8.8800546 6.00515187 -6.5 2.6875 C-3.5625 0.5625 -3.5625 0.5625 0 0 Z " fill="#B2D7F4" transform="translate(462.5625,371.4375)"/>
<path d="M0 0 C3.3125 2.0625 3.3125 2.0625 6 5 C6.6875 8.5 6.6875 8.5 6 12 C3.99666503 14.94239824 2.5738114 16.67850156 -1.0078125 17.41015625 C-3.93543223 17.53439104 -6.27579504 17.51752546 -8.7109375 15.77734375 C-10.8695965 12.80101088 -10.52722265 9.95047694 -10.41796875 6.38671875 C-10 4 -10 4 -7.8125 1.375 C-4.69635719 -0.14844759 -3.38762639 -0.7436253 0 0 Z " fill="#ADD1EE" transform="translate(481,418)"/>
<path d="M0 0 C2.3125 0.9375 2.3125 0.9375 4 3 C4.96764737 6.06224989 5.31943805 8.8000153 5 12 C3 15.0625 3 15.0625 0 17 C-3.5625 17.625 -3.5625 17.625 -7 17 C-9.57836875 14.88441539 -10.72448716 13.31258474 -11.4140625 10.02734375 C-11.68093725 6.27002822 -11.31960127 4.37600149 -8.875 1.5 C-5.52678113 -0.2468968 -3.7241837 -0.55466566 0 0 Z " fill="#B1D6F3" transform="translate(607,372)"/>
<path d="M0 0 C3.8425303 0.72047443 5.45767292 1.57152696 8 4.5625 C8.8316352 8.82355872 8.44396979 11.89654531 6 15.5625 C5.34 15.5625 4.68 15.5625 4 15.5625 C4 16.2225 4 16.8825 4 17.5625 C-0.29107165 17.9831933 -2.35134537 18.01793836 -5.9375 15.5 C-8 12.5625 -8 12.5625 -8.625 9.0625 C-7.67703424 3.75389177 -5.38444917 1.00958422 0 0 Z " fill="#ADD1EE" transform="translate(584,325.4375)"/>
<path d="M0 0 C3 1.4375 3 1.4375 5 4 C5.3284257 7.19206729 4.94992267 9.94171237 4 13 C1.78123823 15.71181994 0.51925164 15.93371256 -2.9375 16.375 C-6.55341826 15.9322345 -8.2965164 15.47175643 -11 13 C-12.07211518 10.26344082 -12.37443417 7.91604795 -12 5 C-8.69951458 0.04927187 -5.81192204 -0.9340589 0 0 Z " fill="#AED2EF" transform="translate(480,465)"/>
<path d="M0 0 C2.375 1 2.375 1 4 3 C4.96503736 5.73525927 5.32035831 8.11115485 5 11 C3 14 3 14 0 16 C-3.95779649 16.62491523 -6.00863886 16.61006839 -9.4375 14.5 C-11.63828902 10.97873756 -11.80414661 8.04560357 -11 4 C-8.14969659 -0.56048545 -5.12186168 -0.64023271 0 0 Z " fill="#B1D5F3" transform="translate(573,280)"/>
<path d="M0 0 C0.33 0 0.66 0 1 0 C1.33 2.97 1.66 5.94 2 9 C2.99 6.36 3.98 3.72 5 1 C5.33 1.66 5.66 2.32 6 3 C5.67 3.99 5.34 4.98 5 6 C4.92970879 8.57265818 4.90629168 11.11641431 4.9375 13.6875 C4.94201172 14.38939453 4.94652344 15.09128906 4.95117188 15.81445312 C4.96293073 17.54300538 4.98086546 19.27151365 5 21 C2.3144406 18.3144406 1.93950026 15.62378672 1 12 C0.34 12 -0.32 12 -1 12 C-0.67 8.04 -0.34 4.08 0 0 Z " fill="#52C4F6" transform="translate(498,422)"/>
<path d="M0 0 C0.66 0.33 1.32 0.66 2 1 C-0.11905463 3.17277714 -2.24472878 5.33826908 -4.375 7.5 C-4.97828125 8.12003906 -5.5815625 8.74007813 -6.203125 9.37890625 C-6.78320312 9.96542969 -7.36328125 10.55195313 -7.9609375 11.15625 C-8.49509277 11.70087891 -9.02924805 12.24550781 -9.57958984 12.80664062 C-11 14 -11 14 -13 14 C-10.38256198 8.10428565 -5.28256657 3.59214527 0 0 Z " fill="#252D34" transform="translate(401,279)"/>
<path d="M0 0 C0.66 0.33 1.32 0.66 2 1 C0.21427748 2.83947337 -1.57802449 4.67157741 -3.375 6.5 C-3.88289063 7.02464844 -4.39078125 7.54929687 -4.9140625 8.08984375 C-6.23832604 9.43153181 -7.61605865 10.71995815 -9 12 C-9.66 12 -10.32 12 -11 12 C-9.49650623 8.33213607 -7.36271208 6.31089607 -4.375 3.75 C-3.14910156 2.69039063 -3.14910156 2.69039063 -1.8984375 1.609375 C-1.27195312 1.07828125 -0.64546875 0.5471875 0 0 Z " fill="#91AFC8" transform="translate(412,291)"/>
<path d="M0 0 C0.58523438 0.22042969 1.17046875 0.44085938 1.7734375 0.66796875 C1.0721875 1.03921875 0.3709375 1.41046875 -0.3515625 1.79296875 C-2.78491606 3.37993846 -4.42916708 4.79254304 -6.4140625 6.85546875 C-7.80625 8.24765625 -7.80625 8.24765625 -9.2265625 9.66796875 C-9.8865625 9.66796875 -10.5465625 9.66796875 -11.2265625 9.66796875 C-9.86804119 6.58103171 -8.38145297 4.58155141 -5.8515625 2.35546875 C-4.97371094 1.55689453 -4.97371094 1.55689453 -4.078125 0.7421875 C-2.2265625 -0.33203125 -2.2265625 -0.33203125 0 0 Z " fill="#29B9F2" transform="translate(515.2265625,216.33203125)"/>
<path d="M0 0 C0.66 0.33 1.32 0.66 2 1 C-1.63 4.63 -5.26 8.26 -9 12 C-9 7.8407692 -6.75316432 5.85455565 -4 3 C-1.6875 1.125 -1.6875 1.125 0 0 Z " fill="#2DBAF2" transform="translate(509,336)"/>
<path d="M0 0 C0 0.33 0 0.66 0 1 C-1.98 1 -3.96 1 -6 1 C-6.268125 1.639375 -6.53625 2.27875 -6.8125 2.9375 C-8 5 -8 5 -11 6 C-11 7.65 -11 9.3 -11 11 C-11.33 11 -11.66 11 -12 11 C-12.46233492 7.0239197 -12.30954571 5.43148796 -9.9375 2.125 C-6.34962488 -0.47048413 -4.3322929 -0.4247346 0 0 Z " fill="#7A93A7" transform="translate(466,372)"/>
<path d="M0 0 C-1.55603771 3.81936528 -3.95604931 6.26044438 -7 9 C-7.66 9 -8.32 9 -9 9 C-7.45665977 5.21180126 -4.44676575 0 0 0 Z " fill="#27B9F2" transform="translate(505,270)"/>
<path d="M0 0 C-1.38188453 3.21043882 -2.92421903 5.04936365 -5.625 7.25 C-6.57246094 8.03117187 -6.57246094 8.03117187 -7.5390625 8.828125 C-8.02117187 9.21484375 -8.50328125 9.6015625 -9 10 C-7.6834994 5.81113445 -4.97532335 0 0 0 Z " fill="#2BBAF2" transform="translate(513,413)"/>
<path d="M0 0 C-1.44077046 3.36179774 -3.24750021 5.59156268 -6 8 C-6.66 8 -7.32 8 -8 8 C-6.48291727 4.46014029 -4.24676932 0 0 0 Z " fill="#22B8F1" transform="translate(513,476)"/>
<path d="M0 0 C-1.44077046 3.36179774 -3.24750021 5.59156268 -6 8 C-6.66 8 -7.32 8 -8 8 C-6.48291727 4.46014029 -4.24676932 0 0 0 Z " fill="#242B31" transform="translate(468,456)"/>
<path d="M0 0 C0.33 0 0.66 0 1 0 C1.33 2.97 1.66 5.94 2 9 C2.33 9 2.66 9 3 9 C3 10.65 3 12.3 3 14 C1.68 13.34 0.36 12.68 -1 12 C-0.67 8.04 -0.34 4.08 0 0 Z " fill="#93B8D2" transform="translate(498,422)"/>
<path d="M0 0 C-1.28519565 2.86697492 -2.57129254 4.97607712 -5 7 C-5.66 7 -6.32 7 -7 7 C-3.86206897 0 -3.86206897 0 0 0 Z " fill="#272F35" transform="translate(453,364)"/>
<path d="M0 0 C-0.66 1.32 -1.32 2.64 -2 4 C-2.66 4 -3.32 4 -4 4 C-4 6.31 -4 8.62 -4 11 C-4.33 11 -4.66 11 -5 11 C-5.36717663 3.5340751 -5.36717663 3.5340751 -3.625 1 C-2 0 -2 0 0 0 Z " fill="#85A1B7" transform="translate(601,373)"/>
<path d="M0 0 C-1.39332574 3.36720387 -2.9789286 4.9859524 -6 7 C-5.37162381 3.35541809 -4.14650034 0 0 0 Z " fill="#262E35" transform="translate(560,272)"/>
</svg>
